<svg xmlns="http://www.w3.org/2000/svg"
 viewBox=" -9.500001 -20.784607  22.000000  22.863068"
>
<polyline
 fill="none" stroke="green" stroke-width="4.572614e-2"
 points="
  0.000000,  0.000000
  1.000000,  0.000000
  1.500000, -0.866025
  0.500000, -0.866025
 -0.000000, -1.732051
  1.000000, -1.732051
  2.000000, -1.732051
  2.500000, -0.866025
  3.500000, -0.866025
  4.000000, -1.732051
  4.500000, -2.598076
  3.500000, -2.598076
  3.000000, -1.732051
  2.500000, -2.598076
  3.000000, -3.464102
  2.500000, -4.330127
  1.500000, -4.330127
  0.500000, -4.330127
  1.000000, -3.464102
  2.000000, -3.464102
  1.500000, -2.598077
  0.500000, -2.598077
 -0.000000, -3.464102
 -1.000000, -3.464102
 -0.500000, -2.598077
 -1.000000, -1.732051
 -1.500000, -2.598077
 -2.000000, -3.464102
 -1.500000, -4.330128
 -0.500000, -4.330128
 -0.000000, -5.196153
 -1.000000, -5.196153
 -1.500000, -6.062179
 -0.500000, -6.062179
  0.500000, -6.062179
  1.000000, -5.196153
  2.000000, -5.196153
  2.500000, -6.062179
  1.500000, -6.062179
  1.000000, -6.928204
  2.000000, -6.928204
  3.000000, -6.928204
  3.500000, -6.062179
  3.000000, -5.196153
  3.500000, -4.330128
  4.000000, -3.464102
  4.500000, -4.330128
  4.000000, -5.196153
  5.000000, -5.196153
  5.500000, -4.330128
  6.500000, -4.330128
  7.000000, -5.196153
  6.000000, -5.196153
  5.500000, -6.062179
  6.500000, -6.062179
  7.500000, -6.062179
  8.000000, -5.196153
  9.000000, -5.196153
  9.500000, -6.062179
 10.000000, -6.928204
  9.000000, -6.928204
  8.500000, -6.062179
  8.000000, -6.928204
  8.500000, -7.794230
  9.500000, -7.794230
 10.000000, -8.660255
 10.500000, -9.526281
  9.500000, -9.526281
  9.000000, -8.660255
  8.500000, -9.526280
  9.000000,-10.392305
  8.500000,-11.258330
  7.500000,-11.258330
  6.500000,-11.258330
  7.000000,-10.392305
  8.000000,-10.392305
  7.500000, -9.526279
  6.500000, -9.526279
  6.000000, -8.660254
  6.500000, -7.794228
  7.000000, -8.660254
  8.000000, -8.660254
  7.500000, -7.794228
  7.000000, -6.928203
  6.000000, -6.928203
  5.500000, -7.794228
  4.500000, -7.794228
  5.000000, -6.928203
  4.500000, -6.062177
  4.000000, -6.928203
  3.500000, -7.794228
  4.000000, -8.660254
  5.000000, -8.660254
  5.500000, -9.526279
  6.000000,-10.392305
  5.000000,-10.392305
  4.500000, -9.526279
  4.000000,-10.392304
  4.500000,-11.258329
  4.000000,-12.124354
  3.000000,-12.124354
  3.500000,-11.258329
  3.000000,-10.392303
  2.500000,-11.258328
  2.000000,-12.124353
  2.500000,-12.990379
  2.000000,-13.856404
  1.000000,-13.856404
  0.000000,-13.856404
  0.500000,-12.990379
  1.500000,-12.990379
  1.000000,-12.124353
  0.000000,-12.124353
 -0.500000,-12.990378
 -1.500000,-12.990378
 -2.500000,-12.990378
 -2.000000,-12.124353
 -1.000000,-12.124353
 -1.500000,-11.258328
 -2.500000,-11.258328
 -3.000000,-10.392302
 -2.500000, -9.526276
 -2.000000, -8.660250
 -1.500000, -9.526275
 -2.000000,-10.392300
 -1.000000,-10.392300
 -0.500000, -9.526274
  0.500000, -9.526274
  1.000000,-10.392299
 -0.000000,-10.392299
 -0.500000,-11.258324
  0.500000,-11.258324
  1.500000,-11.258324
  1.999999,-10.392298
  1.500000, -9.526272
  1.999999, -8.660246
  2.500000, -9.526271
  3.500000, -9.526271
  3.000000, -8.660246
  2.500000, -7.794220
  1.500000, -7.794220
  0.999999, -8.660246
 -0.000001, -8.660246
 -1.000000, -8.660246
 -0.500001, -7.794220
  0.499999, -7.794220
 -0.000001, -6.928195
 -1.000000, -6.928195
 -1.500000, -7.794220
 -2.500000, -7.794220
 -2.000000, -6.928195
 -2.500000, -6.062170
 -3.000000, -6.928195
 -3.500000, -7.794220
 -3.000000, -8.660246
 -3.500000, -9.526271
 -4.500000, -9.526271
 -5.500000, -9.526271
 -5.000000, -8.660246
 -4.000000, -8.660246
 -4.500000, -7.794220
 -5.500000, -7.794220
 -6.000000, -6.928195
 -5.500000, -6.062170
 -5.000000, -5.196144
 -4.500000, -6.062170
 -5.000000, -6.928195
 -4.000000, -6.928195
 -3.500000, -6.062170
 -4.000000, -5.196144
 -3.500000, -4.330119
 -3.000000, -5.196144
 -2.000000, -5.196144
 -2.500000, -4.330119
 -3.000000, -3.464093
 -4.000000, -3.464093
 -4.500000, -4.330119
 -5.500000, -4.330119
 -5.000000, -3.464093
 -5.500000, -2.598068
 -6.000000, -3.464093
 -6.500000, -4.330119
 -6.000000, -5.196144
 -6.500000, -6.062170
 -7.500000, -6.062170
 -7.000000, -5.196144
 -7.500000, -4.330119
 -8.000001, -5.196144
 -8.500001, -6.062170
 -8.000001, -6.928195
 -7.000001, -6.928195
 -6.500001, -7.794220
 -6.000001, -8.660246
 -7.000001, -8.660246
 -7.500001, -7.794220
 -8.000001, -8.660246
 -7.500001, -9.526272
 -6.500001, -9.526272
 -6.000001,-10.392298
 -7.000001,-10.392298
 -7.500001,-11.258323
 -6.500001,-11.258323
 -5.500001,-11.258323
 -5.000001,-10.392298
 -4.000001,-10.392298
 -3.500001,-11.258324
 -3.000001,-12.124350
 -4.000001,-12.124350
 -4.500001,-11.258324
 -5.000001,-12.124349
 -4.500001,-12.990374
 -5.000001,-13.856399
 -6.000001,-13.856399
 -7.000001,-13.856399
 -6.500001,-12.990374
 -5.500001,-12.990374
 -6.000001,-12.124348
 -7.000001,-12.124348
 -7.500001,-12.990373
 -8.500001,-12.990373
 -8.000001,-12.124348
 -8.500001,-11.258322
 -9.000001,-12.124347
 -9.500001,-12.990372
 -9.000001,-13.856398
 -8.000001,-13.856398
 -7.500001,-14.722424
 -8.500001,-14.722424
 -9.000001,-15.588449
 -8.000001,-15.588449
 -7.000001,-15.588449
 -6.500001,-14.722424
 -5.500001,-14.722424
 -5.000001,-15.588450
 -6.000001,-15.588450
 -6.500001,-16.454475
 -5.500001,-16.454475
 -4.500001,-16.454475
 -4.000001,-15.588450
 -4.500001,-14.722424
 -4.000001,-13.856400
 -3.500001,-12.990374
 -3.000001,-13.856400
 -3.500001,-14.722424
 -2.500001,-14.722424
 -2.000001,-13.856400
 -1.000001,-13.856400
 -0.500001,-14.722425
 -1.500001,-14.722425
 -2.000001,-15.588450
 -1.000001,-15.588450
 -0.000001,-15.588450
  0.499999,-14.722425
  1.499999,-14.722425
  1.999999,-15.588451
  2.499999,-16.454477
  1.499999,-16.454477
  0.999999,-15.588451
  0.499999,-16.454477
  0.999999,-17.320503
  0.499999,-18.186530
 -0.500001,-18.186530
 -1.500001,-18.186530
 -1.000001,-17.320503
 -0.000001,-17.320503
 -0.500001,-16.454477
 -1.500001,-16.454477
 -2.000001,-17.320503
 -3.000001,-17.320503
 -2.500001,-16.454477
 -3.000001,-15.588451
 -3.500001,-16.454477
 -4.000001,-17.320503
 -3.500001,-18.186530
 -2.500001,-18.186530
 -2.000001,-19.052555
 -3.000001,-19.052555
 -3.500001,-19.918581
 -2.500001,-19.918581
 -1.500001,-19.918581
 -1.000001,-19.052555
 -0.000001,-19.052555
  0.499999,-19.918581
 -0.500001,-19.918581
 -1.000001,-20.784607
 -0.000001,-20.784607
  0.999999,-20.784607
  1.499999,-19.918581
  0.999999,-19.052555
  1.499999,-18.186530
  1.999999,-17.320503
  2.499999,-18.186530
  1.999999,-19.052555
  2.999999,-19.052555
  3.499999,-18.186530
  2.999999,-17.320503
  3.499999,-16.454477
  3.999999,-17.320503
  4.999999,-17.320503
  4.499999,-16.454477
  3.999999,-15.588452
  2.999999,-15.588452
  2.499999,-14.722427
  2.999999,-13.856401
  3.499999,-12.990376
  3.999999,-13.856401
  3.499999,-14.722426
  4.499999,-14.722426
  4.999999,-13.856401
  4.499999,-12.990376
  4.999999,-12.124352
  5.499999,-11.258326
  5.999999,-12.124352
  5.499999,-12.990376
  6.499999,-12.990376
  6.999999,-12.124352
  7.999999,-12.124352
  8.499999,-12.990377
  8.999999,-13.856403
  7.999999,-13.856403
  7.499999,-12.990377
  6.999999,-13.856402
  7.499999,-14.722427
  6.999999,-15.588452
  5.999999,-15.588452
  6.499999,-14.722427
  5.999999,-13.856401
  5.499999,-14.722426
  4.999999,-15.588451
  5.499999,-16.454477
  6.499999,-16.454477
  6.999999,-17.320503
  5.999999,-17.320503
  5.499999,-18.186530
  6.499999,-18.186530
  7.499999,-18.186530
  7.999999,-17.320503
  7.499999,-16.454477
  7.999999,-15.588451
  8.499999,-14.722425
  8.999999,-15.588451
  8.499999,-16.454477
  9.499999,-16.454477
  9.999999,-15.588451
 "
/>
</svg>
