<svg xmlns="http://www.w3.org/2000/svg"
 viewBox=" -0.000001 -31.000000  34.100002  34.100002"
>
<polyline
 fill="none" stroke="green" stroke-width="6.820001e-2"
 points="
  0.000000,  0.000000
 -0.000000, -1.000000
  1.000000, -1.000000
  1.000000,  0.000000
  2.000000,  0.000000
  3.000000,  0.000000
  3.000000, -1.000000
  2.000000, -1.000000
  2.000000, -2.000000
  3.000000, -2.000000
  3.000000, -3.000000
  2.000000, -3.000000
  1.000000, -3.000000
  1.000000, -2.000000
  0.000000, -2.000000
 -0.000000, -3.000000
 -0.000000, -4.000000
  1.000000, -4.000000
  1.000000, -5.000000
 -0.000000, -5.000000
 -0.000000, -6.000000
 -0.000000, -7.000000
  1.000000, -7.000000
  1.000000, -6.000000
  2.000000, -6.000000
  2.000000, -7.000000
  3.000000, -7.000000
  3.000000, -6.000000
  3.000000, -5.000000
  2.000000, -5.000000
  2.000000, -4.000000
  3.000000, -4.000000
  4.000000, -4.000000
  5.000000, -4.000000
  5.000000, -5.000000
  4.000000, -5.000000
  4.000000, -6.000000
  4.000000, -7.000000
  5.000000, -7.000000
  5.000000, -6.000000
  6.000000, -6.000000
  6.000000, -7.000000
  7.000000, -7.000000
  7.000000, -6.000000
  7.000000, -5.000000
  6.000000, -5.000000
  6.000000, -4.000000
  7.000000, -4.000000
  7.000000, -3.000000
  7.000000, -2.000000
  6.000000, -2.000000
  6.000000, -3.000000
  5.000000, -3.000000
  4.000000, -3.000000
  4.000000, -2.000000
  5.000000, -2.000000
  5.000000, -1.000000
  4.000000, -1.000000
  4.000000, -0.000000
  5.000000, -0.000000
  6.000000, -0.000000
  6.000000, -1.000000
  7.000000, -1.000000
  7.000000, -0.000000
  8.000000, -0.000000
  9.000000, -0.000000
  9.000000, -1.000000
  8.000000, -1.000000
  8.000000, -2.000000
  8.000000, -3.000000
  9.000000, -3.000000
  9.000000, -2.000000
 10.000000, -2.000000
 10.000000, -3.000000
 11.000000, -3.000000
 11.000000, -2.000000
 11.000000, -1.000000
 10.000000, -1.000000
 10.000000, -0.000000
 11.000000, -0.000000
 12.000000, -0.000000
 12.000000, -1.000000
 13.000000, -1.000000
 13.000000, -0.000000
 14.000000, -0.000000
 15.000000, -0.000000
 15.000000, -1.000000
 14.000000, -1.000000
 14.000000, -2.000000
 15.000000, -2.000000
 15.000000, -3.000000
 14.000000, -3.000000
 13.000000, -3.000000
 13.000000, -2.000000
 12.000000, -2.000000
 12.000000, -3.000000
 12.000000, -4.000000
 12.000000, -5.000000
 13.000000, -5.000000
 13.000000, -4.000000
 14.000000, -4.000000
 15.000000, -4.000000
 15.000000, -5.000000
 14.000000, -5.000000
 14.000000, -6.000000
 15.000000, -6.000000
 15.000000, -7.000000
 14.000000, -7.000000
 13.000000, -7.000000
 13.000000, -6.000000
 12.000000, -6.000000
 12.000000, -7.000000
 11.000000, -7.000000
 10.000000, -7.000000
 10.000000, -6.000000
 11.000000, -6.000000
 11.000000, -5.000000
 11.000000, -4.000000
 10.000000, -4.000000
 10.000000, -5.000000
  9.000000, -5.000000
  9.000000, -4.000000
  8.000000, -4.000000
  8.000000, -5.000000
  8.000000, -6.000000
  9.000000, -6.000000
  9.000000, -7.000000
  8.000000, -7.000000
  8.000000, -8.000000
  9.000000, -8.000000
  9.000000, -9.000000
  8.000000, -9.000000
  8.000000,-10.000000
  8.000000,-11.000000
  9.000000,-11.000000
  9.000000,-10.000000
 10.000000,-10.000000
 10.000000,-11.000000
 11.000000,-11.000000
 11.000000,-10.000000
 11.000000, -9.000000
 10.000000, -9.000000
 10.000000, -8.000000
 11.000000, -8.000000
 12.000000, -8.000000
 12.000000, -9.000000
 13.000000, -9.000000
 13.000000, -8.000000
 14.000000, -8.000000
 15.000000, -8.000000
 15.000000, -9.000000
 14.000000, -9.000000
 14.000000,-10.000000
 15.000000,-10.000000
 15.000000,-11.000000
 14.000000,-11.000000
 13.000000,-11.000000
 13.000000,-10.000000
 12.000000,-10.000000
 12.000000,-11.000000
 12.000000,-12.000000
 12.000000,-13.000000
 13.000000,-13.000000
 13.000000,-12.000000
 14.000000,-12.000000
 15.000000,-12.000000
 15.000000,-13.000000
 14.000000,-13.000000
 14.000000,-14.000000
 15.000000,-14.000000
 15.000000,-15.000000
 14.000000,-15.000000
 13.000000,-15.000000
 13.000000,-14.000000
 12.000000,-14.000000
 12.000000,-15.000000
 11.000000,-15.000000
 10.000000,-15.000000
 10.000000,-14.000000
 11.000000,-14.000000
 11.000000,-13.000000
 11.000000,-12.000000
 10.000000,-12.000000
 10.000000,-13.000000
  9.000000,-13.000000
  9.000000,-12.000000
  8.000000,-12.000000
  8.000000,-13.000000
  8.000000,-14.000000
  9.000000,-14.000000
  9.000000,-15.000000
  8.000000,-15.000000
  7.000000,-15.000000
  7.000000,-14.000000
  6.000000,-14.000000
  6.000000,-15.000000
  5.000000,-15.000000
  4.000000,-15.000000
  4.000000,-14.000000
  5.000000,-14.000000
  5.000000,-13.000000
  4.000000,-13.000000
  4.000000,-12.000000
  5.000000,-12.000000
  6.000000,-12.000000
  6.000000,-13.000000
  7.000000,-13.000000
  7.000000,-12.000000
  7.000000,-11.000000
  6.000000,-11.000000
  6.000000,-10.000000
  7.000000,-10.000000
  7.000000, -9.000000
  7.000000, -8.000000
  6.000000, -8.000000
  6.000000, -9.000000
  5.000000, -9.000000
  5.000000, -8.000000
  4.000000, -8.000000
  4.000000, -9.000000
  4.000000,-10.000000
  5.000000,-10.000000
  5.000000,-11.000000
  4.000000,-11.000000
  3.000000,-11.000000
  2.000000,-11.000000
  2.000000,-10.000000
  3.000000,-10.000000
  3.000000, -9.000000
  3.000000, -8.000000
  2.000000, -8.000000
  2.000000, -9.000000
  1.000000, -9.000000
  1.000000, -8.000000
  0.000000, -8.000000
 -0.000000, -9.000000
 -0.000000,-10.000000
  1.000000,-10.000000
  1.000000,-11.000000
 -0.000000,-11.000000
 -0.000000,-12.000000
 -0.000000,-13.000000
  1.000000,-13.000000
  1.000000,-12.000000
  2.000000,-12.000000
  3.000000,-12.000000
  3.000000,-13.000000
  2.000000,-13.000000
  2.000000,-14.000000
  3.000000,-14.000000
  3.000000,-15.000000
  2.000000,-15.000000
  1.000000,-15.000000
  1.000000,-14.000000
 -0.000000,-14.000000
 -0.000000,-15.000000
 -0.000000,-16.000000
  1.000000,-16.000000
  1.000000,-17.000000
 -0.000000,-17.000000
 -0.000000,-18.000000
 -0.000000,-19.000000
  1.000000,-19.000000
  1.000000,-18.000000
  2.000000,-18.000000
  2.000000,-19.000000
  3.000000,-19.000000
  3.000000,-18.000000
  3.000000,-17.000000
  2.000000,-17.000000
  2.000000,-16.000000
  3.000000,-16.000000
  4.000000,-16.000000
  4.000000,-17.000000
  5.000000,-17.000000
  5.000000,-16.000000
  6.000000,-16.000000
  7.000000,-16.000000
  7.000000,-17.000000
  6.000000,-17.000000
  6.000000,-18.000000
  7.000000,-18.000000
  7.000000,-19.000000
  6.000000,-19.000000
  5.000000,-19.000000
  5.000000,-18.000000
  4.000000,-18.000000
  4.000000,-19.000000
  4.000000,-20.000000
  4.000000,-21.000000
  5.000000,-21.000000
  5.000000,-20.000000
  6.000000,-20.000000
  7.000000,-20.000000
  7.000000,-21.000000
  6.000000,-21.000000
  6.000000,-22.000000
  7.000000,-22.000000
  7.000000,-23.000000
  6.000000,-23.000000
  5.000000,-23.000000
  5.000000,-22.000000
  4.000000,-22.000000
  4.000000,-23.000000
  3.000000,-23.000000
  2.000000,-23.000000
  2.000000,-22.000000
  3.000000,-22.000000
  3.000000,-21.000000
  3.000000,-20.000000
  2.000000,-20.000000
  2.000000,-21.000000
  1.000000,-21.000000
  1.000000,-20.000000
 -0.000000,-20.000000
 -0.000001,-21.000000
 -0.000001,-22.000000
  0.999999,-22.000000
  0.999999,-23.000000
 -0.000001,-23.000000
 -0.000001,-24.000000
 -0.000001,-25.000000
  0.999999,-25.000000
  0.999999,-24.000000
  1.999999,-24.000000
  2.999999,-24.000000
  2.999999,-25.000000
  1.999999,-25.000000
  1.999999,-26.000000
  2.999999,-26.000000
  2.999999,-27.000000
  1.999999,-27.000000
  0.999999,-27.000000
  0.999999,-26.000000
 -0.000001,-26.000000
 -0.000001,-27.000000
 -0.000001,-28.000000
  0.999999,-28.000000
  0.999999,-29.000000
 -0.000001,-29.000000
 -0.000001,-30.000000
 -0.000001,-31.000000
  0.999999,-31.000000
  0.999999,-30.000000
  1.999999,-30.000000
  1.999999,-31.000000
  2.999999,-31.000000
  2.999999,-30.000000
  2.999999,-29.000000
  1.999999,-29.000000
  1.999999,-28.000000
  2.999999,-28.000000
  3.999999,-28.000000
  4.999999,-28.000000
  4.999999,-29.000000
  3.999999,-29.000000
  3.999999,-30.000000
  3.999999,-31.000000
  4.999999,-31.000000
  4.999999,-30.000000
  5.999999,-30.000000
  5.999999,-31.000000
  6.999999,-31.000000
  6.999999,-30.000000
  6.999999,-29.000000
  5.999999,-29.000000
  5.999999,-28.000000
  6.999999,-28.000000
  6.999999,-27.000000
  6.999999,-26.000000
  5.999999,-26.000000
  5.999999,-27.000000
  4.999999,-27.000000
  3.999999,-27.000000
  3.999999,-26.000000
  4.999999,-26.000000
  4.999999,-25.000000
  3.999999,-25.000000
  3.999999,-24.000000
  4.999999,-24.000000
  5.999999,-24.000000
  5.999999,-25.000000
  6.999999,-25.000000
  6.999999,-24.000000
  7.999999,-24.000000
  7.999999,-25.000000
  8.999999,-25.000000
  8.999999,-24.000000
  9.999999,-24.000000
 10.999999,-24.000000
 10.999999,-25.000000
  9.999999,-25.000000
  9.999999,-26.000000
 10.999999,-26.000000
 10.999999,-27.000000
  9.999999,-27.000000
  8.999999,-27.000000
  8.999999,-26.000000
  7.999999,-26.000000
  7.999999,-27.000000
  7.999999,-28.000000
  8.999999,-28.000000
  8.999999,-29.000000
  7.999999,-29.000000
  7.999999,-30.000000
  7.999999,-31.000000
  8.999999,-31.000000
  8.999999,-30.000000
  9.999999,-30.000000
  9.999999,-31.000000
 10.999999,-31.000000
 10.999999,-30.000000
 10.999999,-29.000000
  9.999999,-29.000000
  9.999999,-28.000000
 10.999999,-28.000000
 11.999999,-28.000000
 12.999999,-28.000000
 12.999999,-29.000000
 11.999999,-29.000000
 11.999999,-30.000000
 11.999999,-31.000000
 12.999999,-31.000000
 12.999999,-30.000000
 13.999999,-30.000000
 13.999999,-31.000000
 14.999999,-31.000000
 14.999999,-30.000000
 14.999999,-29.000000
 13.999999,-29.000000
 13.999999,-28.000000
 14.999999,-28.000000
 14.999999,-27.000000
 14.999999,-26.000000
 13.999999,-26.000000
 13.999999,-27.000000
 12.999999,-27.000000
 11.999999,-27.000000
 11.999999,-26.000000
 12.999999,-26.000000
 12.999999,-25.000000
 11.999999,-25.000000
 11.999999,-24.000000
 12.999999,-24.000000
 13.999999,-24.000000
 13.999999,-25.000000
 14.999999,-25.000000
 14.999999,-24.000000
 14.999999,-23.000000
 13.999999,-23.000000
 13.999999,-22.000000
 14.999999,-22.000000
 14.999999,-21.000000
 14.999999,-20.000000
 13.999999,-20.000000
 13.999999,-21.000000
 12.999999,-21.000000
 12.999999,-20.000000
 11.999999,-20.000000
 11.999999,-21.000000
 11.999999,-22.000000
 12.999999,-22.000000
 12.999999,-23.000000
 11.999999,-23.000000
 10.999999,-23.000000
 10.999999,-22.000000
  9.999999,-22.000000
  9.999999,-23.000000
  8.999999,-23.000000
  7.999999,-23.000000
  7.999999,-22.000000
  8.999999,-22.000000
  8.999999,-21.000000
  7.999999,-21.000000
  7.999999,-20.000000
  8.999999,-20.000000
  9.999999,-20.000000
  9.999999,-21.000000
 10.999999,-21.000000
 10.999999,-20.000000
 10.999999,-19.000000
 10.999999,-18.000000
  9.999999,-18.000000
  9.999999,-19.000000
  8.999999,-19.000000
  7.999999,-19.000000
  7.999999,-18.000000
  8.999999,-18.000000
  8.999999,-17.000000
  7.999999,-17.000000
  7.999999,-16.000000
  8.999999,-16.000000
  9.999999,-16.000000
  9.999999,-17.000000
 10.999999,-17.000000
 10.999999,-16.000000
 11.999999,-16.000000
 12.999999,-16.000000
 12.999999,-17.000000
 11.999999,-17.000000
 11.999999,-18.000000
 11.999999,-19.000000
 12.999999,-19.000000
 12.999999,-18.000000
 13.999999,-18.000000
 13.999999,-19.000000
 14.999999,-19.000000
 14.999999,-18.000000
 14.999999,-17.000000
 13.999999,-17.000000
 13.999999,-16.000000
 14.999999,-16.000000
 15.999999,-16.000000
 17.000000,-16.000000
 17.000000,-17.000000
 16.000000,-17.000000
 16.000000,-18.000000
 16.000000,-19.000000
 17.000000,-19.000000
 17.000000,-18.000000
 18.000000,-18.000000
 18.000000,-19.000000
 19.000000,-19.000000
 19.000000,-18.000000
 19.000000,-17.000000
 18.000000,-17.000000
 18.000000,-16.000000
 19.000000,-16.000000
 20.000000,-16.000000
 20.000000,-17.000000
 21.000000,-17.000000
 21.000000,-16.000000
 22.000000,-16.000000
 23.000000,-16.000000
 23.000000,-17.000000
 22.000000,-17.000000
 22.000000,-18.000000
 23.000000,-18.000000
 23.000000,-19.000000
 22.000000,-19.000000
 21.000000,-19.000000
 21.000000,-18.000000
 20.000000,-18.000000
 20.000000,-19.000000
 20.000000,-20.000000
 20.000000,-21.000000
 21.000000,-21.000000
 21.000000,-20.000000
 22.000000,-20.000000
 23.000000,-20.000000
 23.000000,-21.000000
 22.000000,-21.000000
 22.000000,-22.000000
 23.000000,-22.000000
 23.000000,-23.000000
 22.000000,-23.000000
 21.000000,-23.000000
 21.000000,-22.000000
 20.000000,-22.000000
 20.000000,-23.000000
 19.000000,-23.000000
 18.000000,-23.000000
 18.000000,-22.000000
 19.000000,-22.000000
 19.000000,-21.000000
 19.000000,-20.000000
 18.000000,-20.000000
 18.000000,-21.000000
 17.000000,-21.000000
 17.000000,-20.000000
 16.000000,-20.000000
 16.000000,-21.000000
 16.000000,-22.000000
 17.000000,-22.000000
 17.000000,-23.000000
 16.000000,-23.000000
 16.000000,-24.000000
 16.000000,-25.000000
 17.000000,-25.000000
 17.000000,-24.000000
 18.000000,-24.000000
 19.000000,-24.000000
 19.000000,-25.000000
 18.000000,-25.000000
 18.000000,-26.000000
 19.000000,-26.000000
 19.000000,-27.000000
 18.000000,-27.000000
 17.000000,-27.000000
 17.000000,-26.000000
 16.000000,-26.000000
 16.000000,-27.000000
 16.000000,-28.000000
 17.000000,-28.000000
 17.000000,-29.000000
 16.000000,-29.000000
 16.000000,-30.000000
 16.000000,-31.000000
 17.000000,-31.000000
 17.000000,-30.000000
 18.000000,-30.000000
 18.000000,-31.000000
 19.000000,-31.000000
 19.000000,-30.000000
 19.000000,-29.000000
 18.000000,-29.000000
 18.000000,-28.000000
 19.000000,-28.000000
 20.000000,-28.000000
 21.000000,-28.000000
 21.000000,-29.000000
 20.000000,-29.000000
 20.000000,-30.000000
 20.000000,-31.000000
 21.000000,-31.000000
 21.000000,-30.000000
 22.000000,-30.000000
 22.000000,-31.000000
 23.000000,-31.000000
 23.000000,-30.000000
 23.000000,-29.000000
 22.000000,-29.000000
 22.000000,-28.000000
 23.000000,-28.000000
 23.000000,-27.000000
 23.000000,-26.000000
 22.000000,-26.000000
 22.000000,-27.000000
 21.000000,-27.000000
 20.000000,-27.000000
 20.000000,-26.000000
 21.000000,-26.000000
 21.000000,-25.000000
 20.000000,-25.000000
 20.000000,-24.000000
 21.000000,-24.000000
 22.000000,-24.000000
 22.000000,-25.000000
 23.000000,-25.000000
 23.000000,-24.000000
 24.000000,-24.000000
 24.000000,-25.000000
 25.000000,-25.000000
 25.000000,-24.000000
 26.000000,-24.000000
 27.000000,-24.000000
 27.000000,-25.000000
 26.000000,-25.000000
 26.000000,-26.000000
 27.000000,-26.000000
 27.000000,-27.000000
 26.000000,-27.000000
 25.000000,-27.000000
 25.000000,-26.000000
 24.000000,-26.000000
 24.000000,-27.000000
 24.000000,-28.000000
 25.000000,-28.000000
 25.000000,-29.000000
 24.000000,-29.000000
 24.000000,-30.000000
 24.000000,-31.000000
 25.000000,-31.000000
 25.000000,-30.000000
 26.000000,-30.000000
 26.000000,-31.000000
 27.000000,-31.000000
 27.000000,-30.000000
 27.000000,-29.000000
 26.000000,-29.000000
 26.000000,-28.000000
 27.000000,-28.000000
 28.000000,-28.000000
 29.000000,-28.000000
 29.000000,-29.000000
 28.000000,-29.000000
 28.000000,-30.000000
 28.000000,-31.000000
 29.000000,-31.000000
 29.000000,-30.000000
 30.000000,-30.000000
 30.000000,-31.000000
 31.000000,-31.000000
 31.000000,-30.000000
 31.000000,-29.000000
 30.000000,-29.000000
 30.000000,-28.000000
 31.000000,-28.000000
 31.000000,-27.000000
 31.000000,-26.000000
 30.000000,-26.000000
 30.000000,-27.000000
 29.000000,-27.000000
 28.000000,-27.000000
 28.000000,-26.000000
 29.000000,-26.000000
 29.000000,-25.000000
 28.000000,-25.000000
 28.000000,-24.000000
 29.000000,-24.000000
 30.000000,-24.000000
 30.000000,-25.000000
 31.000000,-25.000000
 31.000000,-24.000000
 31.000000,-23.000000
 30.000000,-23.000000
 30.000000,-22.000000
 31.000000,-22.000000
 31.000000,-21.000000
 31.000000,-20.000000
 30.000000,-20.000000
 30.000000,-21.000000
 29.000000,-21.000000
 29.000000,-20.000000
 28.000000,-20.000000
 28.000000,-21.000000
 28.000000,-22.000000
 29.000000,-22.000000
 29.000000,-23.000000
 28.000000,-23.000000
 27.000000,-23.000000
 27.000000,-22.000000
 26.000000,-22.000000
 26.000000,-23.000000
 25.000000,-23.000000
 24.000000,-23.000000
 24.000000,-22.000000
 25.000000,-22.000000
 25.000000,-21.000000
 24.000000,-21.000000
 24.000000,-20.000000
 25.000000,-20.000000
 26.000000,-20.000000
 26.000000,-21.000000
 27.000000,-21.000000
 27.000000,-20.000000
 27.000000,-19.000000
 27.000000,-18.000000
 26.000000,-18.000000
 26.000000,-19.000000
 25.000000,-19.000000
 24.000000,-19.000000
 24.000000,-18.000000
 25.000000,-18.000000
 25.000000,-17.000000
 24.000000,-17.000000
 24.000000,-16.000000
 25.000000,-16.000000
 26.000000,-16.000000
 26.000000,-17.000000
 27.000000,-17.000000
 27.000000,-16.000000
 28.000000,-16.000000
 29.000000,-16.000000
 29.000000,-17.000000
 28.000000,-17.000000
 28.000000,-18.000000
 28.000000,-19.000000
 29.000000,-19.000000
 29.000000,-18.000000
 30.000000,-18.000000
 30.000000,-19.000000
 31.000000,-19.000000
 31.000000,-18.000000
 31.000000,-17.000000
 30.000000,-17.000000
 30.000000,-16.000000
 31.000000,-16.000000
 31.000000,-15.000000
 31.000000,-14.000000
 30.000000,-14.000000
 30.000000,-15.000000
 29.000000,-15.000000
 28.000000,-15.000000
 28.000000,-14.000000
 29.000000,-14.000000
 29.000000,-13.000000
 28.000000,-13.000000
 28.000000,-12.000000
 29.000000,-12.000000
 30.000000,-12.000000
 30.000000,-13.000000
 31.000000,-13.000000
 31.000000,-12.000000
 31.000000,-11.000000
 30.000000,-11.000000
 30.000000,-10.000000
 31.000000,-10.000000
 31.000000, -9.000000
 31.000000, -8.000000
 30.000000, -8.000000
 30.000000, -9.000000
 29.000000, -9.000000
 29.000000, -8.000000
 28.000000, -8.000000
 28.000000, -9.000000
 28.000000,-10.000000
 29.000000,-10.000000
 29.000000,-11.000000
 28.000000,-11.000000
 27.000000,-11.000000
 26.000000,-11.000000
 26.000000,-10.000000
 27.000000,-10.000000
 27.000000, -9.000000
 27.000000, -8.000000
 26.000000, -8.000000
 26.000000, -9.000000
 25.000000, -9.000000
 25.000000, -8.000000
 24.000000, -8.000000
 24.000000, -9.000000
 24.000000,-10.000000
 25.000000,-10.000000
 25.000000,-11.000000
 24.000000,-11.000000
 24.000000,-12.000000
 24.000000,-13.000000
 25.000000,-13.000000
 25.000000,-12.000000
 26.000000,-12.000000
 27.000000,-12.000000
 27.000000,-13.000000
 26.000000,-13.000000
 26.000000,-14.000000
 27.000000,-14.000000
 27.000000,-15.000000
 26.000000,-15.000000
 25.000000,-15.000000
 25.000000,-14.000000
 24.000000,-14.000000
 24.000000,-15.000000
 23.000000,-15.000000
 22.000000,-15.000000
 22.000000,-14.000000
 23.000000,-14.000000
 23.000000,-13.000000
 23.000000,-12.000000
 22.000000,-12.000000
 22.000000,-13.000000
 21.000000,-13.000000
 21.000000,-12.000000
 20.000000,-12.000000
 20.000000,-13.000000
 20.000000,-14.000000
 21.000000,-14.000000
 21.000000,-15.000000
 20.000000,-15.000000
 19.000000,-15.000000
 19.000000,-14.000000
 18.000000,-14.000000
 18.000000,-15.000000
 17.000000,-15.000000
 16.000000,-15.000000
 16.000000,-14.000000
 17.000000,-14.000000
 17.000000,-13.000000
 16.000000,-13.000000
 16.000000,-12.000000
 17.000000,-12.000000
 18.000000,-12.000000
 18.000000,-13.000000
 19.000000,-13.000000
 19.000000,-12.000000
 19.000000,-11.000000
 19.000000,-10.000000
 18.000000,-10.000000
 18.000000,-11.000000
 17.000000,-11.000000
 16.000000,-11.000000
 16.000000,-10.000000
 17.000000,-10.000000
 17.000000, -9.000000
 16.000000, -9.000000
 16.000000, -8.000000
 17.000000, -8.000000
 18.000000, -8.000000
 18.000000, -9.000000
 19.000000, -9.000000
 19.000000, -8.000000
 20.000000, -8.000000
 21.000000, -8.000000
 21.000000, -9.000000
 20.000000, -9.000000
 20.000000,-10.000000
 20.000000,-11.000000
 21.000000,-11.000000
 21.000000,-10.000000
 22.000000,-10.000000
 22.000000,-11.000000
 23.000000,-11.000000
 23.000000,-10.000000
 23.000000, -9.000000
 22.000000, -9.000000
 22.000000, -8.000000
 23.000000, -8.000000
 23.000000, -7.000000
 22.000000, -7.000000
 22.000000, -6.000000
 23.000000, -6.000000
 23.000000, -5.000000
 23.000000, -4.000000
 22.000000, -4.000000
 22.000000, -5.000000
 21.000000, -5.000000
 21.000000, -4.000000
 20.000000, -4.000000
 20.000000, -5.000000
 20.000000, -6.000000
 21.000000, -6.000000
 21.000000, -7.000000
 20.000000, -7.000000
 19.000000, -7.000000
 19.000000, -6.000000
 18.000000, -6.000000
 18.000000, -7.000000
 17.000000, -7.000000
 16.000000, -7.000000
 16.000000, -6.000000
 17.000000, -6.000000
 17.000000, -5.000000
 16.000000, -5.000000
 16.000000, -4.000000
 17.000000, -4.000000
 18.000000, -4.000000
 18.000000, -5.000000
 19.000000, -5.000000
 19.000000, -4.000000
 19.000000, -3.000000
 19.000000, -2.000000
 18.000000, -2.000000
 18.000000, -3.000000
 17.000000, -3.000000
 16.000000, -3.000000
 16.000000, -2.000000
 17.000000, -2.000000
 17.000000, -1.000000
 16.000000, -1.000000
 16.000000, -0.000000
 17.000000, -0.000000
 18.000000, -0.000000
 18.000000, -1.000000
 19.000000, -1.000000
 19.000000, -0.000000
 20.000000, -0.000000
 21.000000, -0.000000
 21.000000, -1.000000
 20.000000, -1.000000
 20.000000, -2.000000
 20.000000, -3.000000
 21.000000, -3.000000
 21.000000, -2.000000
 22.000000, -2.000000
 22.000000, -3.000000
 23.000000, -3.000000
 23.000000, -2.000000
 23.000000, -1.000000
 22.000000, -1.000000
 22.000000, -0.000000
 23.000000, -0.000000
 24.000000, -0.000000
 24.000000, -1.000000
 25.000000, -1.000000
 25.000000, -0.000000
 26.000000, -0.000000
 27.000000, -0.000000
 27.000000, -1.000000
 26.000000, -1.000000
 26.000000, -2.000000
 27.000000, -2.000000
 27.000000, -3.000000
 26.000000, -3.000000
 25.000000, -3.000000
 25.000000, -2.000000
 24.000000, -2.000000
 24.000000, -3.000000
 24.000000, -4.000000
 25.000000, -4.000000
 25.000000, -5.000000
 24.000000, -5.000000
 24.000000, -6.000000
 24.000000, -7.000000
 25.000000, -7.000000
 25.000000, -6.000000
 26.000000, -6.000000
 26.000000, -7.000000
 27.000000, -7.000000
 27.000000, -6.000000
 27.000000, -5.000000
 26.000000, -5.000000
 26.000000, -4.000000
 27.000000, -4.000000
 28.000000, -4.000000
 29.000000, -4.000000
 29.000000, -5.000000
 28.000000, -5.000000
 28.000000, -6.000000
 28.000000, -7.000000
 29.000000, -7.000000
 29.000000, -6.000000
 30.000000, -6.000000
 30.000000, -7.000000
 31.000000, -7.000000
 31.000000, -6.000000
 31.000000, -5.000000
 30.000000, -5.000000
 30.000000, -4.000000
 31.000000, -4.000000
 31.000000, -3.000000
 31.000000, -2.000000
 30.000000, -2.000000
 30.000000, -3.000000
 29.000000, -3.000000
 28.000000, -3.000000
 28.000000, -2.000000
 29.000000, -2.000000
 29.000000, -1.000000
 28.000000, -1.000000
 28.000000, -0.000000
 29.000000, -0.000000
 30.000000, -0.000000
 30.000000, -1.000000
 31.000000, -1.000000
 31.000000, -0.000000
 "
/>
</svg>
