<svg xmlns="http://www.w3.org/2000/svg"
 viewBox="  0.000000  -0.000006  70.400000  60.015530"
>
<polyline
 fill="none" stroke="green" stroke-width="0.14080001"
 points="
  0.000000,  0.000000
  1.000000,  0.000000
  1.500000,  0.866025
  1.000000,  1.732051
  1.500000,  2.598076
  2.500000,  2.598076
  3.000000,  1.732051
  2.500000,  0.866026
  3.000000,  0.000000
  4.000000,  0.000000
  4.500000,  0.866026
  5.500000,  0.866026
  6.000000,  0.000000
  7.000000,  0.000000
  7.500000,  0.866026
  7.000000,  1.732051
  6.000000,  1.732051
  5.500000,  2.598076
  6.000000,  3.464102
  5.500000,  4.330127
  4.500000,  4.330127
  4.000000,  3.464101
  3.000000,  3.464101
  2.500000,  4.330127
  3.000000,  5.196152
  4.000000,  5.196152
  4.500000,  6.062178
  4.000000,  6.928203
  4.500000,  7.794229
  5.500000,  7.794229
  6.000000,  6.928203
  7.000000,  6.928203
  7.500000,  7.794229
  7.000000,  8.660254
  6.000000,  8.660254
  5.500000,  9.526278
  6.000000, 10.392303
  7.000000, 10.392303
  7.500000, 11.258329
  7.000000, 12.124354
  7.500000, 12.990379
  8.500000, 12.990379
  9.000000, 12.124353
  8.500000, 11.258328
  9.000000, 10.392303
 10.000000, 10.392303
 10.500000,  9.526278
 10.000000,  8.660253
  9.000000,  8.660253
  8.500000,  7.794227
  9.000000,  6.928202
 10.000000,  6.928202
 10.500000,  7.794227
 11.500000,  7.794227
 12.000000,  6.928202
 11.500000,  6.062176
 12.000000,  5.196151
 13.000000,  5.196151
 13.500000,  4.330125
 13.000000,  3.464100
 12.000000,  3.464100
 11.500000,  4.330125
 10.500000,  4.330125
 10.000000,  3.464100
 10.500000,  2.598074
 10.000000,  1.732049
  9.000000,  1.732049
  8.500000,  0.866024
  9.000000, -0.000002
 10.000000, -0.000002
 10.500000,  0.866024
 11.500000,  0.866024
 12.000000, -0.000002
 13.000000, -0.000002
 13.500000,  0.866024
 13.000000,  1.732049
 13.500000,  2.598074
 14.500000,  2.598074
 15.000000,  1.732049
 14.500000,  0.866024
 15.000000, -0.000002
 16.000000, -0.000002
 16.500000,  0.866024
 17.500000,  0.866024
 18.000000, -0.000002
 19.000000, -0.000002
 19.500000,  0.866024
 19.000000,  1.732049
 18.000000,  1.732049
 17.500000,  2.598074
 18.000000,  3.464100
 19.000000,  3.464100
 19.500000,  4.330125
 19.000000,  5.196150
 19.500000,  6.062176
 20.500000,  6.062176
 21.000000,  5.196150
 20.500000,  4.330125
 21.000000,  3.464099
 22.000000,  3.464099
 22.500000,  2.598074
 22.000000,  1.732048
 21.000000,  1.732049
 20.500000,  0.866023
 21.000000, -0.000002
 22.000000, -0.000002
 22.500000,  0.866023
 23.500000,  0.866023
 24.000000, -0.000002
 25.000000, -0.000002
 25.500000,  0.866023
 25.000000,  1.732049
 25.500000,  2.598074
 26.500000,  2.598074
 27.000000,  1.732048
 26.500000,  0.866023
 27.000000, -0.000002
 28.000000, -0.000002
 28.500000,  0.866023
 29.500000,  0.866023
 30.000000, -0.000002
 31.000000, -0.000002
 31.500000,  0.866023
 31.000000,  1.732048
 30.000000,  1.732048
 29.500000,  2.598074
 30.000000,  3.464099
 29.500000,  4.330124
 28.500000,  4.330124
 28.000000,  3.464099
 27.000000,  3.464099
 26.500000,  4.330124
 27.000000,  5.196150
 28.000000,  5.196150
 28.500000,  6.062175
 28.000000,  6.928201
 27.000000,  6.928201
 26.500000,  7.794226
 27.000000,  8.660252
 26.500000,  9.526277
 25.500000,  9.526277
 25.000000,  8.660252
 25.500000,  7.794226
 25.000000,  6.928201
 24.000000,  6.928201
 23.500000,  7.794226
 22.500000,  7.794226
 22.000000,  6.928201
 21.000000,  6.928201
 20.500000,  7.794226
 21.000000,  8.660252
 22.000000,  8.660252
 22.500000,  9.526278
 22.000000, 10.392302
 22.500000, 11.258328
 23.500000, 11.258328
 24.000000, 10.392302
 25.000000, 10.392302
 25.500000, 11.258328
 25.000000, 12.124352
 24.000000, 12.124352
 23.500000, 12.990377
 24.000000, 13.856403
 23.500000, 14.722428
 22.500000, 14.722428
 22.000000, 13.856403
 21.000000, 13.856403
 20.500000, 14.722428
 21.000000, 15.588453
 22.000000, 15.588453
 22.500000, 16.454480
 22.000000, 17.320505
 21.000000, 17.320505
 20.500000, 18.186531
 21.000000, 19.052557
 20.500000, 19.918583
 19.500000, 19.918583
 19.000000, 19.052557
 19.500000, 18.186531
 19.000000, 17.320505
 18.000000, 17.320505
 17.500000, 16.454480
 18.000000, 15.588453
 19.000000, 15.588453
 19.500000, 14.722427
 19.000000, 13.856401
 18.000000, 13.856401
 17.500000, 14.722426
 16.500000, 14.722426
 16.000000, 13.856401
 15.000000, 13.856401
 14.500000, 14.722426
 15.000000, 15.588451
 14.500000, 16.454477
 13.500000, 16.454477
 13.000000, 15.588451
 13.500000, 14.722425
 13.000000, 13.856400
 12.000000, 13.856400
 11.500000, 14.722424
 10.500000, 14.722424
 10.000000, 13.856400
  9.000000, 13.856400
  8.500000, 14.722424
  9.000000, 15.588450
 10.000000, 15.588450
 10.500000, 16.454475
 10.000000, 17.320501
 10.500000, 18.186527
 11.500000, 18.186527
 12.000000, 17.320501
 13.000000, 17.320501
 13.500000, 18.186527
 13.000000, 19.052553
 12.000000, 19.052553
 11.500000, 19.918580
 12.000000, 20.784605
 13.000000, 20.784605
 13.500000, 21.650630
 13.000000, 22.516657
 13.500000, 23.382683
 14.500000, 23.382683
 15.000000, 22.516657
 14.500000, 21.650630
 15.000000, 20.784605
 16.000000, 20.784605
 16.500000, 21.650630
 17.500000, 21.650630
 18.000000, 20.784605
 19.000000, 20.784605
 19.500000, 21.650630
 19.000000, 22.516657
 18.000000, 22.516657
 17.500000, 23.382683
 18.000000, 24.248709
 17.500000, 25.114735
 16.500000, 25.114735
 16.000000, 24.248709
 15.000000, 24.248709
 14.500000, 25.114735
 15.000000, 25.980760
 16.000000, 25.980760
 16.500000, 26.846786
 16.000000, 27.712812
 16.500000, 28.578838
 17.500000, 28.578838
 18.000000, 27.712812
 19.000000, 27.712812
 19.500000, 28.578838
 19.000000, 29.444864
 18.000000, 29.444864
 17.500000, 30.310890
 18.000000, 31.176916
 19.000000, 31.176916
 19.500000, 32.042942
 19.000000, 32.908966
 19.500000, 33.774990
 20.500000, 33.774990
 21.000000, 32.908966
 20.500000, 32.042942
 21.000000, 31.176916
 22.000000, 31.176916
 22.500000, 30.310890
 22.000000, 29.444864
 21.000000, 29.444864
 20.500000, 28.578838
 21.000000, 27.712812
 22.000000, 27.712812
 22.500000, 28.578838
 23.500000, 28.578838
 24.000000, 27.712812
 25.000000, 27.712812
 25.500000, 28.578838
 25.000000, 29.444864
 25.500000, 30.310890
 26.500000, 30.310890
 27.000000, 29.444864
 26.500000, 28.578838
 27.000000, 27.712812
 28.000000, 27.712812
 28.500000, 28.578838
 29.500000, 28.578838
 30.000000, 27.712812
 31.000000, 27.712812
 31.500000, 28.578838
 31.000000, 29.444864
 30.000000, 29.444864
 29.500000, 30.310890
 30.000000, 31.176916
 29.500000, 32.042942
 28.500000, 32.042942
 28.000000, 31.176916
 27.000000, 31.176916
 26.500000, 32.042942
 27.000000, 32.908966
 28.000000, 32.908966
 28.500000, 33.774990
 28.000000, 34.641014
 27.000000, 34.641014
 26.500000, 35.507040
 27.000000, 36.373062
 26.500000, 37.239086
 25.500000, 37.239086
 25.000000, 36.373062
 25.500000, 35.507040
 25.000000, 34.641014
 24.000000, 34.641014
 23.500000, 35.507040
 22.500000, 35.507040
 22.000000, 34.641014
 21.000000, 34.641014
 20.500000, 35.507040
 21.000000, 36.373062
 22.000000, 36.373062
 22.500000, 37.239086
 22.000000, 38.105110
 22.500000, 38.971134
 23.500000, 38.971134
 24.000000, 38.105110
 25.000000, 38.105110
 25.500000, 38.971134
 25.000000, 39.837160
 24.000000, 39.837160
 23.500000, 40.703182
 24.000000, 41.569206
 25.000000, 41.569206
 25.500000, 42.435230
 25.000000, 43.301254
 25.500000, 44.167280
 26.500000, 44.167280
 27.000000, 43.301254
 26.500000, 42.435230
 27.000000, 41.569206
 28.000000, 41.569206
 28.500000, 42.435230
 29.500000, 42.435230
 30.000000, 41.569206
 31.000000, 41.569206
 31.500000, 42.435230
 31.000000, 43.301254
 30.000000, 43.301254
 29.500000, 44.167280
 30.000000, 45.033302
 29.500000, 45.899326
 28.500000, 45.899326
 28.000000, 45.033302
 27.000000, 45.033302
 26.500000, 45.899326
 27.000000, 46.765350
 28.000000, 46.765350
 28.500000, 47.631374
 28.000000, 48.497400
 28.500000, 49.363422
 29.500000, 49.363422
 30.000000, 48.497400
 31.000000, 48.497400
 31.500000, 49.363422
 31.000000, 50.229446
 30.000000, 50.229446
 29.500000, 51.095470
 30.000000, 51.961494
 31.000000, 51.961494
 31.500000, 52.827520
 31.000000, 53.693542
 31.500000, 54.559566
 32.500000, 54.559566
 33.000000, 53.693542
 32.500000, 52.827520
 33.000000, 51.961494
 34.000000, 51.961494
 34.500000, 51.095470
 34.000000, 50.229446
 33.000000, 50.229446
 32.500000, 49.363422
 33.000000, 48.497400
 34.000000, 48.497400
 34.500000, 49.363422
 35.500000, 49.363422
 36.000000, 48.497400
 35.500000, 47.631374
 36.000000, 46.765350
 37.000000, 46.765350
 37.500000, 45.899326
 37.000000, 45.033302
 36.000000, 45.033302
 35.500000, 45.899326
 34.500000, 45.899326
 34.000000, 45.033302
 34.500000, 44.167280
 34.000000, 43.301254
 33.000000, 43.301254
 32.500000, 42.435230
 33.000000, 41.569206
 34.000000, 41.569206
 34.500000, 42.435230
 35.500000, 42.435230
 36.000000, 41.569206
 37.000000, 41.569206
 37.500000, 42.435230
 37.000000, 43.301254
 37.500000, 44.167280
 38.500000, 44.167280
 39.000000, 43.301254
 38.500000, 42.435230
 39.000000, 41.569206
 40.000000, 41.569206
 40.500000, 40.703182
 40.000000, 39.837160
 39.000000, 39.837160
 38.500000, 38.971134
 39.000000, 38.105110
 40.000000, 38.105110
 40.500000, 38.971134
 41.500000, 38.971134
 42.000000, 38.105110
 41.500000, 37.239086
 42.000000, 36.373062
 43.000000, 36.373062
 43.500000, 35.507040
 43.000000, 34.641014
 42.000000, 34.641014
 41.500000, 35.507040
 40.500000, 35.507040
 40.000000, 34.641014
 39.000000, 34.641014
 38.500000, 35.507040
 39.000000, 36.373062
 38.500000, 37.239086
 37.500000, 37.239086
 37.000000, 36.373062
 37.500000, 35.507040
 37.000000, 34.641014
 36.000000, 34.641014
 35.500000, 33.774990
 36.000000, 32.908966
 37.000000, 32.908966
 37.500000, 32.042942
 37.000000, 31.176916
 36.000000, 31.176916
 35.500000, 32.042942
 34.500000, 32.042942
 34.000000, 31.176916
 34.500000, 30.310890
 34.000000, 29.444864
 33.000000, 29.444864
 32.500000, 28.578838
 33.000000, 27.712812
 34.000000, 27.712812
 34.500000, 28.578838
 35.500000, 28.578838
 36.000000, 27.712812
 37.000000, 27.712812
 37.500000, 28.578838
 37.000000, 29.444864
 37.500000, 30.310890
 38.500000, 30.310890
 39.000000, 29.444864
 38.500000, 28.578838
 39.000000, 27.712812
 40.000000, 27.712812
 40.500000, 28.578838
 41.500000, 28.578838
 42.000000, 27.712812
 43.000000, 27.712812
 43.500000, 28.578838
 43.000000, 29.444864
 42.000000, 29.444864
 41.500000, 30.310890
 42.000000, 31.176916
 43.000000, 31.176916
 43.500000, 32.042942
 43.000000, 32.908966
 43.500000, 33.774990
 44.500000, 33.774990
 45.000000, 32.908966
 44.500000, 32.042942
 45.000000, 31.176916
 46.000000, 31.176916
 46.500000, 30.310890
 46.000000, 29.444864
 45.000000, 29.444864
 44.500000, 28.578838
 45.000000, 27.712812
 46.000000, 27.712812
 46.500000, 28.578838
 47.500000, 28.578838
 48.000000, 27.712812
 47.500000, 26.846786
 48.000000, 25.980760
 49.000000, 25.980760
 49.500000, 25.114735
 49.000000, 24.248709
 48.000000, 24.248709
 47.500000, 25.114735
 46.500000, 25.114735
 46.000000, 24.248709
 46.500000, 23.382683
 46.000000, 22.516657
 45.000000, 22.516657
 44.500000, 21.650630
 45.000000, 20.784605
 46.000000, 20.784605
 46.500000, 21.650630
 47.500000, 21.650630
 48.000000, 20.784605
 49.000000, 20.784605
 49.500000, 21.650630
 49.000000, 22.516657
 49.500000, 23.382683
 50.500000, 23.382683
 51.000000, 22.516657
 50.500000, 21.650630
 51.000000, 20.784605
 52.000000, 20.784605
 52.500000, 19.918580
 52.000000, 19.052553
 51.000000, 19.052553
 50.500000, 18.186527
 51.000000, 17.320501
 52.000000, 17.320501
 52.500000, 18.186527
 53.500000, 18.186527
 54.000000, 17.320501
 53.500000, 16.454475
 54.000000, 15.588450
 55.000000, 15.588450
 55.500000, 14.722424
 55.000000, 13.856399
 54.000000, 13.856399
 53.500000, 14.722424
 52.500000, 14.722424
 52.000000, 13.856399
 51.000000, 13.856399
 50.500000, 14.722424
 51.000000, 15.588450
 50.500000, 16.454475
 49.500000, 16.454475
 49.000000, 15.588450
 49.500000, 14.722425
 49.000000, 13.856400
 48.000000, 13.856400
 47.500000, 14.722425
 46.500000, 14.722425
 46.000000, 13.856400
 45.000000, 13.856400
 44.500000, 14.722425
 45.000000, 15.588451
 46.000000, 15.588451
 46.500000, 16.454477
 46.000000, 17.320503
 45.000000, 17.320503
 44.500000, 18.186530
 45.000000, 19.052555
 44.500000, 19.918581
 43.500000, 19.918581
 43.000000, 19.052555
 43.500000, 18.186530
 43.000000, 17.320503
 42.000000, 17.320503
 41.500000, 16.454477
 42.000000, 15.588451
 43.000000, 15.588451
 43.500000, 14.722425
 43.000000, 13.856400
 42.000000, 13.856400
 41.500000, 14.722425
 40.500000, 14.722425
 40.000000, 13.856400
 40.500000, 12.990376
 40.000000, 12.124351
 39.000000, 12.124351
 38.500000, 11.258326
 39.000000, 10.392300
 40.000000, 10.392300
 40.500000, 11.258326
 41.500000, 11.258326
 42.000000, 10.392300
 41.500000,  9.526275
 42.000000,  8.660250
 43.000000,  8.660250
 43.500000,  7.794224
 43.000000,  6.928199
 42.000000,  6.928199
 41.500000,  7.794224
 40.500000,  7.794224
 40.000000,  6.928199
 39.000000,  6.928199
 38.500000,  7.794224
 39.000000,  8.660250
 38.500000,  9.526276
 37.500000,  9.526276
 37.000000,  8.660251
 37.500000,  7.794225
 37.000000,  6.928200
 36.000000,  6.928200
 35.500000,  6.062174
 36.000000,  5.196149
 37.000000,  5.196149
 37.500000,  4.330123
 37.000000,  3.464098
 36.000000,  3.464098
 35.500000,  4.330123
 34.500000,  4.330123
 34.000000,  3.464098
 34.500000,  2.598072
 34.000000,  1.732047
 33.000000,  1.732047
 32.500000,  0.866022
 33.000000, -0.000004
 34.000000, -0.000004
 34.500000,  0.866022
 35.500000,  0.866022
 36.000000, -0.000004
 37.000000, -0.000004
 37.500000,  0.866022
 37.000000,  1.732047
 37.500000,  2.598072
 38.500000,  2.598072
 39.000000,  1.732047
 38.500000,  0.866022
 39.000000, -0.000004
 40.000000, -0.000004
 40.500000,  0.866022
 41.500000,  0.866022
 42.000000, -0.000004
 43.000000, -0.000004
 43.500000,  0.866022
 43.000000,  1.732047
 42.000000,  1.732047
 41.500000,  2.598072
 42.000000,  3.464098
 43.000000,  3.464098
 43.500000,  4.330123
 43.000000,  5.196148
 43.500000,  6.062174
 44.500000,  6.062174
 45.000000,  5.196148
 44.500000,  4.330123
 45.000000,  3.464098
 46.000000,  3.464098
 46.500000,  2.598072
 46.000000,  1.732047
 45.000000,  1.732047
 44.500000,  0.866021
 45.000000, -0.000004
 46.000000, -0.000004
 46.500000,  0.866021
 47.500000,  0.866021
 48.000000, -0.000004
 49.000000, -0.000004
 49.500000,  0.866021
 49.000000,  1.732047
 49.500000,  2.598072
 50.500000,  2.598072
 51.000000,  1.732047
 50.500000,  0.866021
 51.000000, -0.000004
 52.000000, -0.000004
 52.500000,  0.866021
 53.500000,  0.866021
 54.000000, -0.000004
 55.000000, -0.000004
 55.500000,  0.866021
 55.000000,  1.732047
 54.000000,  1.732046
 53.500000,  2.598072
 54.000000,  3.464097
 53.500000,  4.330122
 52.500000,  4.330122
 52.000000,  3.464097
 51.000000,  3.464097
 50.500000,  4.330122
 51.000000,  5.196148
 52.000000,  5.196148
 52.500000,  6.062173
 52.000000,  6.928199
 52.500000,  7.794224
 53.500000,  7.794224
 54.000000,  6.928199
 55.000000,  6.928199
 55.500000,  7.794224
 55.000000,  8.660250
 54.000000,  8.660250
 53.500000,  9.526275
 54.000000, 10.392300
 55.000000, 10.392300
 55.500000, 11.258326
 55.000000, 12.124351
 55.500000, 12.990376
 56.500000, 12.990376
 57.000000, 12.124350
 56.500000, 11.258325
 57.000000, 10.392300
 58.000000, 10.392300
 58.500000,  9.526274
 58.000000,  8.660249
 57.000000,  8.660249
 56.500000,  7.794223
 57.000000,  6.928198
 58.000000,  6.928198
 58.500000,  7.794223
 59.500000,  7.794223
 60.000000,  6.928198
 59.500000,  6.062172
 60.000000,  5.196147
 61.000000,  5.196147
 61.500000,  4.330122
 61.000000,  3.464096
 60.000000,  3.464096
 59.500000,  4.330122
 58.500000,  4.330122
 58.000000,  3.464096
 58.500000,  2.598071
 58.000000,  1.732045
 57.000000,  1.732045
 56.500000,  0.866020
 57.000000, -0.000006
 58.000000, -0.000006
 58.500000,  0.866020
 59.500000,  0.866020
 60.000000, -0.000006
 61.000000, -0.000006
 61.500000,  0.866020
 61.000000,  1.732045
 61.500000,  2.598071
 62.500000,  2.598071
 63.000000,  1.732045
 62.500000,  0.866020
 63.000000, -0.000006
 64.000000, -0.000006
 "
/>
</svg>
